<svg width="32" height="32" viewBox="0 0 32 32" xmlns="http://www.w3.org/2000/svg">
    <defs>
        <linearGradient id="gradient-financial" x1="0" y1="0" x2="1" y2="1">
            <stop offset="0%" stop-color="#1e40af" />
            <stop offset="100%" stop-color="#22c55e" />
        </linearGradient>
    </defs>

    <!-- Background Rounded Square -->
    <rect width="32" height="32" rx="6" fill="url(#gradient-financial)" />

    <!-- PiggyBank Icon -->
    <g transform="translate(4, 4)">
        <svg x="0" y="0" width="24" height="24" viewBox="0 0 24 24" fill="none"
            stroke="white" stroke-width="2" stroke-linecap="round" stroke-linejoin="round"
            xmlns="http://www.w3.org/2000/svg">
            <path
                d="M11 17h3v2a1 1 0 0 0 1 1h2a1 1 0 0 0 1-1v-3a3.16 3.16 0 0 0 2-2h1a1 1 0 0 0 1-1v-2a1 1 0 0 0-1-1h-1a5 5 0 0 0-2-4V3a4 4 0 0 0-3.2 1.6l-.3.4H11a6 6 0 0 0-6 6v1a5 5 0 0 0 2 4v3a1 1 0 0 0 1 1h2a1 1 0 0 0 1-1z" />
            <path d="M16 10h.01" />
            <path d="M2 8v1a2 2 0 0 0 2 2h1" />
        </svg>
    </g>
</svg>